<svg width="245" height="215" viewBox="0 0 245 215" fill="none" xmlns="http://www.w3.org/2000/svg">
<g filter="url(#filter0_d_323_1386)">
<line x1="110.237" y1="32.6382" x2="69.7833" y2="113.591" stroke="#00A754" stroke-width="4.67324"/>
<line x1="167.884" y1="2.87267" x2="138.112" y2="46.267" stroke="#00A754" stroke-width="4.67324"/>
<line x1="73.1571" y1="2.57451" x2="20.1193" y2="111.394" stroke="#00A754" stroke-width="4.67324"/>
<line x1="70.4629" y1="112.708" x2="54.4404" y2="112.708" stroke="#00A754" stroke-width="4.67324"/>
<line x1="20.0234" y1="112.708" x2="4.0009" y2="112.708" stroke="#00A754" stroke-width="4.67324"/>
<line x1="94.85" y1="1.78192" x2="153.599" y2="111.269" stroke="#00A754" stroke-width="4.67324"/>
<line x1="166.985" y1="1.84695" x2="220.394" y2="109.331" stroke="#00A754" stroke-width="4.67324"/>
<line x1="116.215" y1="1.7858" x2="173.629" y2="109.27" stroke="#00A754" stroke-width="4.67324"/>
<path d="M137.707 2.20117L149.724 28.9054" stroke="#00A754" stroke-width="4.67324"/>
<line x1="171.568" y1="108.034" x2="240.999" y2="108.034" stroke="#00A754" stroke-width="4.67324"/>
<line x1="71.4822" y1="1.10935" x2="98.8541" y2="51.8474" stroke="#00A754" stroke-width="4.67324"/>
<rect width="8.01127" height="8.01127" rx="1.33521" transform="matrix(-1 0 0 1 108.146 64.3066)" fill="#F1F5F3"/>
<rect width="8.01127" height="8.01127" rx="1.33521" transform="matrix(-1 0 0 1 165.957 34.2637)" fill="#F1F5F3"/>
<rect width="8.01127" height="8.01127" rx="1.33521" transform="matrix(-1 0 0 1 71.0566 34.2637)" fill="#F1F5F3"/>
<rect width="8.01127" height="8.01127" rx="1.33521" transform="matrix(-1 0 0 1 108.146 74.9883)" fill="#F1F5F3"/>
<rect width="8.01127" height="8.01127" rx="1.33521" transform="matrix(-1 0 0 1 165.957 44.9453)" fill="#F1F5F3"/>
<rect width="8.01127" height="8.01127" rx="1.33521" transform="matrix(-1 0 0 1 71.0566 44.9453)" fill="#F1F5F3"/>
<rect width="8.01127" height="8.01127" rx="1.33521" transform="matrix(-1 0 0 1 119.496 64.3066)" fill="#F1F5F3"/>
<rect width="8.01127" height="8.01127" rx="1.33521" transform="matrix(-1 0 0 1 177.307 34.2637)" fill="#F1F5F3"/>
<rect width="8.01127" height="8.01127" rx="1.33521" transform="matrix(-1 0 0 1 82.4062 34.2637)" fill="#F1F5F3"/>
<rect width="8.01127" height="8.01127" rx="1.33521" transform="matrix(-1 0 0 1 119.496 74.9883)" fill="#F1F5F3"/>
<rect width="8.01127" height="8.01127" rx="1.33521" transform="matrix(-1 0 0 1 177.307 44.9453)" fill="#F1F5F3"/>
<rect width="8.01127" height="8.01127" rx="1.33521" transform="matrix(-1 0 0 1 82.4062 44.9453)" fill="#F1F5F3"/>
<path d="M39.36 186.827C39.36 188.235 38.72 189.675 37.44 191.147C36.032 192.747 34.432 193.547 32.64 193.547H12.48C10.688 193.547 9.12 192.875 7.776 191.531C6.432 190.187 5.76 188.619 5.76 186.827V180.107H13.44V186.827H31.68V153.227H5.76V146.507H39.36V186.827ZM88.32 193.547H81.6V188.747L76.8 193.547H61.44C59.584 193.547 57.984 192.907 56.64 191.627C55.36 190.283 54.72 188.683 54.72 186.827V159.947H61.44V187.787H81.6V159.947H88.32V193.547ZM109.463 193.547H102.743V144.587L109.463 137.867V193.547ZM156.068 193.547H149.348V188.651L143.588 193.547H129.188C127.332 193.547 125.732 192.907 124.388 191.627C123.108 190.283 122.468 188.683 122.468 186.827V180.107C122.468 178.251 123.108 176.683 124.388 175.403C125.732 174.059 127.332 173.387 129.188 173.387H148.388L142.628 179.051H129.188V187.787H149.348V165.707H122.468L128.228 159.947H149.348C151.204 159.947 152.772 160.619 154.052 161.963C155.396 163.243 156.068 164.811 156.068 166.667V193.547ZM201.63 193.547H194.91V188.651L189.15 193.547H174.75C172.894 193.547 171.294 192.907 169.95 191.627C168.67 190.283 168.03 188.683 168.03 186.827V180.107C168.03 178.251 168.67 176.683 169.95 175.403C171.294 174.059 172.894 173.387 174.75 173.387H193.95L188.19 179.051H174.75V187.787H194.91V165.707H168.03L173.79 159.947H194.91C196.766 159.947 198.334 160.619 199.614 161.963C200.958 163.243 201.63 164.811 201.63 166.667V193.547ZM240.953 193.547H212.153V186.827L233.273 166.667V165.707H212.153V159.947H240.953V166.667L219.833 186.827V187.787H240.953V193.547Z" fill="#00A754"/>
</g>
<defs>
<filter id="filter0_d_323_1386" x="-4" y="0" width="253" height="222.547" filterUnits="userSpaceOnUse" color-interpolation-filters="sRGB">
<feFlood flood-opacity="0" result="BackgroundImageFix"/>
<feColorMatrix in="SourceAlpha" type="matrix" values="0 0 0 0 0 0 0 0 0 0 0 0 0 0 0 0 0 0 127 0" result="hardAlpha"/>
<feOffset dy="4"/>
<feGaussianBlur stdDeviation="2"/>
<feComposite in2="hardAlpha" operator="out"/>
<feColorMatrix type="matrix" values="0 0 0 0 0 0 0 0 0 0 0 0 0 0 0 0 0 0 0.25 0"/>
<feBlend mode="normal" in2="BackgroundImageFix" result="effect1_dropShadow_323_1386"/>
<feBlend mode="normal" in="SourceGraphic" in2="effect1_dropShadow_323_1386" result="shape"/>
</filter>
</defs>
</svg>
