<svg width="151" height="48" viewBox="0 0 151 48" fill="none" xmlns="http://www.w3.org/2000/svg">
<g filter="url(#filter0_d_282_1429)">
<line x1="90.6421" y1="13.9765" x2="80.1167" y2="34.3807" stroke="#00A754" stroke-width="2.1"/>
<line x1="105.577" y1="6.29323" x2="97.8512" y2="17.5538" stroke="#00A754" stroke-width="2.1"/>
<line x1="81.0278" y1="6.15925" x2="67.2649" y2="34.3973" stroke="#00A754" stroke-width="2.1"/>
<line x1="81.4297" y1="34.0871" x2="77.2719" y2="34.0871" stroke="#00A754" stroke-width="2.1"/>
<line x1="68.3418" y1="34.0871" x2="64.1841" y2="34.0871" stroke="#00A754" stroke-width="2.1"/>
<line x1="86.6489" y1="5.54773" x2="102.308" y2="34.6013" stroke="#00A754" stroke-width="2.1"/>
<line x1="105.375" y1="5.58103" x2="119.424" y2="34.0346" stroke="#00A754" stroke-width="2.1"/>
<line x1="92.1913" y1="5.54668" x2="107.407" y2="33.7002" stroke="#00A754" stroke-width="2.1"/>
<path d="M97.3809 5.86816L100.499 12.7977" stroke="#00A754" stroke-width="2.1"/>
<line x1="106.166" y1="34.0867" x2="124.183" y2="34.0867" stroke="#00A754" stroke-width="2.1"/>
<line x1="80.5843" y1="5.37354" x2="87.6871" y2="18.5397" stroke="#00A754" stroke-width="2.1"/>
<rect width="2.07887" height="2.07887" rx="0.346479" transform="matrix(-1 0 0 1 90.6094 21.9834)" fill="#00A754"/>
<rect width="2.07887" height="2.07887" rx="0.346479" transform="matrix(-1 0 0 1 104.711 14.1885)" fill="#00A754"/>
<rect width="2.07887" height="2.07887" rx="0.346479" transform="matrix(-1 0 0 1 80.6836 14.1885)" fill="#00A754"/>
<rect width="2.07887" height="2.07887" rx="0.346479" transform="matrix(-1 0 0 1 90.6094 24.7559)" fill="#00A754"/>
<rect width="2.07887" height="2.07887" rx="0.346479" transform="matrix(-1 0 0 1 104.711 16.96)" fill="#00A754"/>
<rect width="2.07887" height="2.07887" rx="0.346479" transform="matrix(-1 0 0 1 80.6836 16.96)" fill="#00A754"/>
<rect width="2.07887" height="2.07887" rx="0.346479" transform="matrix(-1 0 0 1 93.5547 21.9834)" fill="#00A754"/>
<rect width="2.07887" height="2.07887" rx="0.346479" transform="matrix(-1 0 0 1 107.656 14.1885)" fill="#00A754"/>
<rect width="2.07887" height="2.07887" rx="0.346479" transform="matrix(-1 0 0 1 83.6289 14.1885)" fill="#00A754"/>
<rect width="2.07887" height="2.07887" rx="0.346479" transform="matrix(-1 0 0 1 93.5547 24.7559)" fill="#00A754"/>
<rect width="2.07887" height="2.07887" rx="0.346479" transform="matrix(-1 0 0 1 107.656 16.96)" fill="#00A754"/>
<rect width="2.07887" height="2.07887" rx="0.346479" transform="matrix(-1 0 0 1 83.6289 16.96)" fill="#00A754"/>
<path d="M5.88798 29.1248V25.016H9.11358V29.4704C9.11358 31.2112 9.98398 32.0816 11.7248 32.0816H17.7152C19.456 32.0816 20.3264 31.2112 20.3264 29.4704V11.4224H11.648V8.504H23.552V29.1248C23.552 33.0416 21.5936 35 17.6768 35H11.7632C7.84638 35 5.88798 33.0416 5.88798 29.1248ZM29.7149 29.24V15.032H32.7869V29.624C32.7869 31.416 33.6829 32.312 35.4749 32.312H43.1549V15.032H46.2269V35H35.4749C31.6349 35 29.7149 33.08 29.7149 29.24ZM52.2149 29.5472V6.584H55.2869V29.8544C55.2869 31.6208 56.1829 32.5552 57.9749 32.6576V35.3072C54.1349 35.3072 52.2149 33.3872 52.2149 29.5472Z" fill="#00A754"/>
<path d="M128.504 35V32.6192L139.986 17.72H128.888V15.032H143.864V17.4128L132.382 32.312H144.248V35H128.504Z" fill="#00A754"/>
</g>
<defs>
<filter id="filter0_d_282_1429" x="-2.30468" y="0" width="154.578" height="59.7773" filterUnits="userSpaceOnUse" color-interpolation-filters="sRGB">
<feFlood flood-opacity="0" result="BackgroundImageFix"/>
<feColorMatrix in="SourceAlpha" type="matrix" values="0 0 0 0 0 0 0 0 0 0 0 0 0 0 0 0 0 0 127 0" result="hardAlpha"/>
<feOffset dy="5.88866"/>
<feGaussianBlur stdDeviation="2.94433"/>
<feComposite in2="hardAlpha" operator="out"/>
<feColorMatrix type="matrix" values="0 0 0 0 0 0 0 0 0 0 0 0 0 0 0 0 0 0 0.25 0"/>
<feBlend mode="normal" in2="BackgroundImageFix" result="effect1_dropShadow_282_1429"/>
<feBlend mode="normal" in="SourceGraphic" in2="effect1_dropShadow_282_1429" result="shape"/>
</filter>
</defs>
</svg>
